<svg height="4526" width="720" xmlns="http://www.w3.org/2000/svg">
<rect height="4526" fill="#555" width="720"></rect>
<text fill="#7f7" font-family="Courier New" font-size="12" xml:space="preserve">
<tspan x="10" y="26">34 megabytes installed</tspan>
<tspan x="10" y="42"></tspan>
<tspan x="10" y="58">node_modules</tspan>
<tspan x="10" y="74">└─┬ gulp-stylelint@3.9.0 </tspan>
<tspan x="10" y="90">  ├─┬ chalk@1.1.3 </tspan>
<tspan x="10" y="106">  │ ├── ansi-styles@2.2.1 </tspan>
<tspan x="10" y="122">  │ ├── escape-string-regexp@1.0.5 </tspan>
<tspan x="10" y="138">  │ ├─┬ has-ansi@2.0.0 </tspan>
<tspan x="10" y="154">  │ │ └── ansi-regex@2.1.1 </tspan>
<tspan x="10" y="170">  │ ├── strip-ansi@3.0.1 </tspan>
<tspan x="10" y="186">  │ └── supports-color@2.0.0 </tspan>
<tspan x="10" y="202">  ├── deep-extend@0.4.1 </tspan>
<tspan x="10" y="218">  ├─┬ gulp-util@3.0.8 </tspan>
<tspan x="10" y="234">  │ ├── array-differ@1.0.0 </tspan>
<tspan x="10" y="250">  │ ├── array-uniq@1.0.3 </tspan>
<tspan x="10" y="266">  │ ├── beeper@1.1.1 </tspan>
<tspan x="10" y="282">  │ ├── dateformat@2.0.0 </tspan>
<tspan x="10" y="298">  │ ├─┬ fancy-log@1.3.0 </tspan>
<tspan x="10" y="314">  │ │ └── time-stamp@1.0.1 </tspan>
<tspan x="10" y="330">  │ ├─┬ gulplog@1.0.0 </tspan>
<tspan x="10" y="346">  │ │ └── glogg@1.0.0 </tspan>
<tspan x="10" y="362">  │ ├─┬ has-gulplog@0.1.0 </tspan>
<tspan x="10" y="378">  │ │ └── sparkles@1.0.0 </tspan>
<tspan x="10" y="394">  │ ├── lodash._reescape@3.0.0 </tspan>
<tspan x="10" y="410">  │ ├── lodash._reevaluate@3.0.0 </tspan>
<tspan x="10" y="426">  │ ├── lodash._reinterpolate@3.0.0 </tspan>
<tspan x="10" y="442">  │ ├─┬ lodash.template@3.6.2 </tspan>
<tspan x="10" y="458">  │ │ ├── lodash._basecopy@3.0.1 </tspan>
<tspan x="10" y="474">  │ │ ├── lodash._basetostring@3.0.1 </tspan>
<tspan x="10" y="490">  │ │ ├── lodash._basevalues@3.0.0 </tspan>
<tspan x="10" y="506">  │ │ ├── lodash._isiterateecall@3.0.9 </tspan>
<tspan x="10" y="522">  │ │ ├─┬ lodash.escape@3.2.0 </tspan>
<tspan x="10" y="538">  │ │ │ └── lodash._root@3.0.1 </tspan>
<tspan x="10" y="554">  │ │ ├─┬ lodash.keys@3.1.2 </tspan>
<tspan x="10" y="570">  │ │ │ ├── lodash._getnative@3.9.1 </tspan>
<tspan x="10" y="586">  │ │ │ ├── lodash.isarguments@3.1.0 </tspan>
<tspan x="10" y="602">  │ │ │ └── lodash.isarray@3.0.4 </tspan>
<tspan x="10" y="618">  │ │ ├── lodash.restparam@3.6.1 </tspan>
<tspan x="10" y="634">  │ │ └── lodash.templatesettings@3.1.1 </tspan>
<tspan x="10" y="650">  │ ├── minimist@1.2.0 </tspan>
<tspan x="10" y="666">  │ ├─┬ multipipe@0.1.2 </tspan>
<tspan x="10" y="682">  │ │ └─┬ duplexer2@0.0.2 </tspan>
<tspan x="10" y="698">  │ │   └─┬ readable-stream@1.1.14 </tspan>
<tspan x="10" y="714">  │ │     ├── isarray@0.0.1 </tspan>
<tspan x="10" y="730">  │ │     └── string_decoder@0.10.31 </tspan>
<tspan x="10" y="746">  │ ├── object-assign@3.0.0 </tspan>
<tspan x="10" y="762">  │ ├── replace-ext@0.0.1 </tspan>
<tspan x="10" y="778">  │ └─┬ vinyl@0.5.3 </tspan>
<tspan x="10" y="794">  │   ├── clone@1.0.2 </tspan>
<tspan x="10" y="810">  │   └── clone-stats@0.0.1 </tspan>
<tspan x="10" y="826">  ├─┬ mkdirp@0.5.1 </tspan>
<tspan x="10" y="842">  │ └── minimist@0.0.8 </tspan>
<tspan x="10" y="858">  ├─┬ promise@7.1.1 </tspan>
<tspan x="10" y="874">  │ └── asap@2.0.5 </tspan>
<tspan x="10" y="890">  ├─┬ stylelint@7.10.1 </tspan>
<tspan x="10" y="906">  │ ├─┬ autoprefixer@6.7.7 </tspan>
<tspan x="10" y="922">  │ │ ├─┬ browserslist@1.7.7 </tspan>
<tspan x="10" y="938">  │ │ │ └── electron-to-chromium@1.3.4 </tspan>
<tspan x="10" y="954">  │ │ ├── caniuse-db@1.0.30000655 </tspan>
<tspan x="10" y="970">  │ │ ├── normalize-range@0.1.2 </tspan>
<tspan x="10" y="986">  │ │ └── num2fraction@1.2.2 </tspan>
<tspan x="10" y="1002">  │ ├── balanced-match@0.4.2 </tspan>
<tspan x="10" y="1018">  │ ├─┬ colorguard@1.2.0 </tspan>
<tspan x="10" y="1034">  │ │ ├── color-diff@0.1.7 </tspan>
<tspan x="10" y="1050">  │ │ ├── object-assign@4.1.1 </tspan>
<tspan x="10" y="1066">  │ │ ├─┬ pipetteur@2.0.3 </tspan>
<tspan x="10" y="1082">  │ │ │ ├── onecolor@3.0.4 </tspan>
<tspan x="10" y="1098">  │ │ │ └─┬ synesthesia@1.0.1 </tspan>
<tspan x="10" y="1114">  │ │ │   └── css-color-names@0.0.3 </tspan>
<tspan x="10" y="1130">  │ │ ├─┬ plur@2.1.2 </tspan>
<tspan x="10" y="1146">  │ │ │ └── irregular-plurals@1.2.0 </tspan>
<tspan x="10" y="1162">  │ │ ├── postcss-reporter@1.4.1 </tspan>
<tspan x="10" y="1178">  │ │ ├── text-table@0.2.0 </tspan>
<tspan x="10" y="1194">  │ │ └── yargs@1.3.3 </tspan>
<tspan x="10" y="1210">  │ ├─┬ cosmiconfig@2.1.1 </tspan>
<tspan x="10" y="1226">  │ │ ├─┬ js-yaml@3.8.3 </tspan>
<tspan x="10" y="1242">  │ │ │ ├─┬ argparse@1.0.9 </tspan>
<tspan x="10" y="1258">  │ │ │ │ └── sprintf-js@1.0.3 </tspan>
<tspan x="10" y="1274">  │ │ │ └── esprima@3.1.3 </tspan>
<tspan x="10" y="1290">  │ │ ├── object-assign@4.1.1 </tspan>
<tspan x="10" y="1306">  │ │ ├── os-homedir@1.0.2 </tspan>
<tspan x="10" y="1322">  │ │ ├─┬ parse-json@2.2.0 </tspan>
<tspan x="10" y="1338">  │ │ │ └─┬ error-ex@1.3.1 </tspan>
<tspan x="10" y="1354">  │ │ │   └── is-arrayish@0.2.1 </tspan>
<tspan x="10" y="1370">  │ │ └── require-from-string@1.2.1 </tspan>
<tspan x="10" y="1386">  │ ├─┬ debug@2.6.3 </tspan>
<tspan x="10" y="1402">  │ │ └── ms@0.7.2 </tspan>
<tspan x="10" y="1418">  │ ├─┬ doiuse@2.6.0 </tspan>
<tspan x="10" y="1434">  │ │ ├─┬ css-rule-stream@1.1.0 </tspan>
<tspan x="10" y="1450">  │ │ │ ├── css-tokenize@1.0.1 </tspan>
<tspan x="10" y="1466">  │ │ │ └─┬ through2@0.6.5 </tspan>
<tspan x="10" y="1482">  │ │ │   └── readable-stream@1.0.34 </tspan>
<tspan x="10" y="1498">  │ │ ├─┬ jsonfilter@1.1.2 </tspan>
<tspan x="10" y="1514">  │ │ │ ├─┬ JSONStream@0.8.4 </tspan>
<tspan x="10" y="1530">  │ │ │ │ ├── jsonparse@0.0.5 </tspan>
<tspan x="10" y="1546">  │ │ │ │ └── through@2.3.8 </tspan>
<tspan x="10" y="1562">  │ │ │ ├─┬ stream-combiner@0.2.2 </tspan>
<tspan x="10" y="1578">  │ │ │ │ └── duplexer@0.1.1 </tspan>
<tspan x="10" y="1594">  │ │ │ └─┬ through2@0.6.5 </tspan>
<tspan x="10" y="1610">  │ │ │   └── readable-stream@1.0.34 </tspan>
<tspan x="10" y="1626">  │ │ ├─┬ ldjson-stream@1.2.1 </tspan>
<tspan x="10" y="1642">  │ │ │ ├─┬ split2@0.2.1 </tspan>
<tspan x="10" y="1658">  │ │ │ │ └─┬ through2@0.6.5 </tspan>
<tspan x="10" y="1674">  │ │ │ │   └── readable-stream@1.0.34 </tspan>
<tspan x="10" y="1690">  │ │ │ └─┬ through2@0.6.5 </tspan>
<tspan x="10" y="1706">  │ │ │   └── readable-stream@1.0.34 </tspan>
<tspan x="10" y="1722">  │ │ ├─┬ multimatch@2.1.0 </tspan>
<tspan x="10" y="1738">  │ │ │ ├── arrify@1.0.1 </tspan>
<tspan x="10" y="1754">  │ │ │ └─┬ minimatch@3.0.3 </tspan>
<tspan x="10" y="1770">  │ │ │   └─┬ brace-expansion@1.1.7 </tspan>
<tspan x="10" y="1786">  │ │ │     └── concat-map@0.0.1 </tspan>
<tspan x="10" y="1802">  │ │ ├─┬ source-map@0.4.4 </tspan>
<tspan x="10" y="1818">  │ │ │ └── amdefine@1.0.1 </tspan>
<tspan x="10" y="1834">  │ │ ├─┬ through2@0.6.5 </tspan>
<tspan x="10" y="1850">  │ │ │ └── readable-stream@1.0.34 </tspan>
<tspan x="10" y="1866">  │ │ └─┬ yargs@3.32.0 </tspan>
<tspan x="10" y="1882">  │ │   ├── camelcase@2.1.1 </tspan>
<tspan x="10" y="1898">  │ │   ├─┬ cliui@3.2.0 </tspan>
<tspan x="10" y="1914">  │ │   │ ├── string-width@1.0.2 </tspan>
<tspan x="10" y="1930">  │ │   │ └─┬ wrap-ansi@2.1.0 </tspan>
<tspan x="10" y="1946">  │ │   │   └── string-width@1.0.2 </tspan>
<tspan x="10" y="1962">  │ │   ├─┬ os-locale@1.4.0 </tspan>
<tspan x="10" y="1978">  │ │   │ └─┬ lcid@1.0.0 </tspan>
<tspan x="10" y="1994">  │ │   │   └── invert-kv@1.0.0 </tspan>
<tspan x="10" y="2010">  │ │   ├─┬ string-width@1.0.2 </tspan>
<tspan x="10" y="2026">  │ │   │ ├── code-point-at@1.1.0 </tspan>
<tspan x="10" y="2042">  │ │   │ └─┬ is-fullwidth-code-point@1.0.0 </tspan>
<tspan x="10" y="2058">  │ │   │   └── number-is-nan@1.0.1 </tspan>
<tspan x="10" y="2074">  │ │   ├── window-size@0.1.4 </tspan>
<tspan x="10" y="2090">  │ │   └── y18n@3.2.1 </tspan>
<tspan x="10" y="2106">  │ ├─┬ execall@1.0.0 </tspan>
<tspan x="10" y="2122">  │ │ └─┬ clone-regexp@1.0.0 </tspan>
<tspan x="10" y="2138">  │ │   ├── is-regexp@1.0.0 </tspan>
<tspan x="10" y="2154">  │ │   └── is-supported-regexp-flag@1.0.0 </tspan>
<tspan x="10" y="2170">  │ ├─┬ file-entry-cache@2.0.0 </tspan>
<tspan x="10" y="2186">  │ │ ├─┬ flat-cache@1.2.2 </tspan>
<tspan x="10" y="2202">  │ │ │ ├── circular-json@0.3.1 </tspan>
<tspan x="10" y="2218">  │ │ │ ├─┬ del@2.2.2 </tspan>
<tspan x="10" y="2234">  │ │ │ │ ├── globby@5.0.0 </tspan>
<tspan x="10" y="2250">  │ │ │ │ ├── is-path-cwd@1.0.0 </tspan>
<tspan x="10" y="2266">  │ │ │ │ ├─┬ is-path-in-cwd@1.0.0 </tspan>
<tspan x="10" y="2282">  │ │ │ │ │ └─┬ is-path-inside@1.0.0 </tspan>
<tspan x="10" y="2298">  │ │ │ │ │   └── path-is-inside@1.0.2 </tspan>
<tspan x="10" y="2314">  │ │ │ │ ├── object-assign@4.1.1 </tspan>
<tspan x="10" y="2330">  │ │ │ │ └── rimraf@2.6.1 </tspan>
<tspan x="10" y="2346">  │ │ │ ├── graceful-fs@4.1.11 </tspan>
<tspan x="10" y="2362">  │ │ │ └── write@0.2.1 </tspan>
<tspan x="10" y="2378">  │ │ └── object-assign@4.1.1 </tspan>
<tspan x="10" y="2394">  │ ├── get-stdin@5.0.1 </tspan>
<tspan x="10" y="2410">  │ ├─┬ globby@6.1.0 </tspan>
<tspan x="10" y="2426">  │ │ ├── array-union@1.0.2 </tspan>
<tspan x="10" y="2442">  │ │ ├─┬ glob@7.1.1 </tspan>
<tspan x="10" y="2458">  │ │ │ ├── fs.realpath@1.0.0 </tspan>
<tspan x="10" y="2474">  │ │ │ ├─┬ inflight@1.0.6 </tspan>
<tspan x="10" y="2490">  │ │ │ │ └── wrappy@1.0.2 </tspan>
<tspan x="10" y="2506">  │ │ │ ├── once@1.4.0 </tspan>
<tspan x="10" y="2522">  │ │ │ └── path-is-absolute@1.0.1 </tspan>
<tspan x="10" y="2538">  │ │ ├── object-assign@4.1.1 </tspan>
<tspan x="10" y="2554">  │ │ ├── pify@2.3.0 </tspan>
<tspan x="10" y="2570">  │ │ └─┬ pinkie-promise@2.0.1 </tspan>
<tspan x="10" y="2586">  │ │   └── pinkie@2.0.4 </tspan>
<tspan x="10" y="2602">  │ ├── globjoin@0.1.4 </tspan>
<tspan x="10" y="2618">  │ ├── html-tags@1.1.1 </tspan>
<tspan x="10" y="2634">  │ ├── ignore@3.2.7 </tspan>
<tspan x="10" y="2650">  │ ├── imurmurhash@0.1.4 </tspan>
<tspan x="10" y="2666">  │ ├── known-css-properties@0.0.7 </tspan>
<tspan x="10" y="2682">  │ ├── lodash@4.17.4 </tspan>
<tspan x="10" y="2698">  │ ├── log-symbols@1.0.2 </tspan>
<tspan x="10" y="2714">  │ ├─┬ meow@3.7.0 </tspan>
<tspan x="10" y="2730">  │ │ ├── camelcase-keys@2.1.0 </tspan>
<tspan x="10" y="2746">  │ │ ├── decamelize@1.2.0 </tspan>
<tspan x="10" y="2762">  │ │ ├─┬ loud-rejection@1.6.0 </tspan>
<tspan x="10" y="2778">  │ │ │ ├─┬ currently-unhandled@0.4.1 </tspan>
<tspan x="10" y="2794">  │ │ │ │ └── array-find-index@1.0.2 </tspan>
<tspan x="10" y="2810">  │ │ │ └── signal-exit@3.0.2 </tspan>
<tspan x="10" y="2826">  │ │ ├── map-obj@1.0.1 </tspan>
<tspan x="10" y="2842">  │ │ ├─┬ normalize-package-data@2.3.6 </tspan>
<tspan x="10" y="2858">  │ │ │ ├── hosted-git-info@2.4.2 </tspan>
<tspan x="10" y="2874">  │ │ │ ├─┬ is-builtin-module@1.0.0 </tspan>
<tspan x="10" y="2890">  │ │ │ │ └── builtin-modules@1.1.1 </tspan>
<tspan x="10" y="2906">  │ │ │ ├── semver@5.3.0 </tspan>
<tspan x="10" y="2922">  │ │ │ └─┬ validate-npm-package-license@3.0.1 </tspan>
<tspan x="10" y="2938">  │ │ │   ├─┬ spdx-correct@1.0.2 </tspan>
<tspan x="10" y="2954">  │ │ │   │ └── spdx-license-ids@1.2.2 </tspan>
<tspan x="10" y="2970">  │ │ │   └── spdx-expression-parse@1.0.4 </tspan>
<tspan x="10" y="2986">  │ │ ├── object-assign@4.1.1 </tspan>
<tspan x="10" y="3002">  │ │ ├─┬ read-pkg-up@1.0.1 </tspan>
<tspan x="10" y="3018">  │ │ │ ├─┬ find-up@1.1.2 </tspan>
<tspan x="10" y="3034">  │ │ │ │ └── path-exists@2.1.0 </tspan>
<tspan x="10" y="3050">  │ │ │ └─┬ read-pkg@1.1.0 </tspan>
<tspan x="10" y="3066">  │ │ │   ├─┬ load-json-file@1.1.0 </tspan>
<tspan x="10" y="3082">  │ │ │   │ └─┬ strip-bom@2.0.0 </tspan>
<tspan x="10" y="3098">  │ │ │   │   └── is-utf8@0.2.1 </tspan>
<tspan x="10" y="3114">  │ │ │   └── path-type@1.1.0 </tspan>
<tspan x="10" y="3130">  │ │ ├─┬ redent@1.0.0 </tspan>
<tspan x="10" y="3146">  │ │ │ ├─┬ indent-string@2.1.0 </tspan>
<tspan x="10" y="3162">  │ │ │ │ └─┬ repeating@2.0.1 </tspan>
<tspan x="10" y="3178">  │ │ │ │   └── is-finite@1.0.2 </tspan>
<tspan x="10" y="3194">  │ │ │ └─┬ strip-indent@1.0.1 </tspan>
<tspan x="10" y="3210">  │ │ │   └── get-stdin@4.0.1 </tspan>
<tspan x="10" y="3226">  │ │ └── trim-newlines@1.0.0 </tspan>
<tspan x="10" y="3242">  │ ├─┬ micromatch@2.3.11 </tspan>
<tspan x="10" y="3258">  │ │ ├─┬ arr-diff@2.0.0 </tspan>
<tspan x="10" y="3274">  │ │ │ └── arr-flatten@1.0.3 </tspan>
<tspan x="10" y="3290">  │ │ ├── array-unique@0.2.1 </tspan>
<tspan x="10" y="3306">  │ │ ├─┬ braces@1.8.5 </tspan>
<tspan x="10" y="3322">  │ │ │ ├─┬ expand-range@1.8.2 </tspan>
<tspan x="10" y="3338">  │ │ │ │ └─┬ fill-range@2.2.3 </tspan>
<tspan x="10" y="3354">  │ │ │ │   ├── is-number@2.1.0 </tspan>
<tspan x="10" y="3370">  │ │ │ │   ├─┬ isobject@2.1.0 </tspan>
<tspan x="10" y="3386">  │ │ │ │   │ └── isarray@1.0.0 </tspan>
<tspan x="10" y="3402">  │ │ │ │   ├── randomatic@1.1.6 </tspan>
<tspan x="10" y="3418">  │ │ │ │   └── repeat-string@1.6.1 </tspan>
<tspan x="10" y="3434">  │ │ │ ├── preserve@0.2.0 </tspan>
<tspan x="10" y="3450">  │ │ │ └── repeat-element@1.1.2 </tspan>
<tspan x="10" y="3466">  │ │ ├─┬ expand-brackets@0.1.5 </tspan>
<tspan x="10" y="3482">  │ │ │ └── is-posix-bracket@0.1.1 </tspan>
<tspan x="10" y="3498">  │ │ ├── extglob@0.3.2 </tspan>
<tspan x="10" y="3514">  │ │ ├── filename-regex@2.0.0 </tspan>
<tspan x="10" y="3530">  │ │ ├── is-extglob@1.0.0 </tspan>
<tspan x="10" y="3546">  │ │ ├── is-glob@2.0.1 </tspan>
<tspan x="10" y="3562">  │ │ ├─┬ kind-of@3.1.0 </tspan>
<tspan x="10" y="3578">  │ │ │ └── is-buffer@1.1.5 </tspan>
<tspan x="10" y="3594">  │ │ ├─┬ normalize-path@2.1.1 </tspan>
<tspan x="10" y="3610">  │ │ │ └── remove-trailing-separator@1.0.1 </tspan>
<tspan x="10" y="3626">  │ │ ├─┬ object.omit@2.0.1 </tspan>
<tspan x="10" y="3642">  │ │ │ ├─┬ for-own@0.1.5 </tspan>
<tspan x="10" y="3658">  │ │ │ │ └── for-in@1.0.2 </tspan>
<tspan x="10" y="3674">  │ │ │ └── is-extendable@0.1.1 </tspan>
<tspan x="10" y="3690">  │ │ ├─┬ parse-glob@3.0.4 </tspan>
<tspan x="10" y="3706">  │ │ │ ├─┬ glob-base@0.3.0 </tspan>
<tspan x="10" y="3722">  │ │ │ │ └── glob-parent@2.0.0 </tspan>
<tspan x="10" y="3738">  │ │ │ └── is-dotfile@1.0.2 </tspan>
<tspan x="10" y="3754">  │ │ └─┬ regex-cache@0.4.3 </tspan>
<tspan x="10" y="3770">  │ │   ├── is-equal-shallow@0.1.3 </tspan>
<tspan x="10" y="3786">  │ │   └── is-primitive@2.0.0 </tspan>
<tspan x="10" y="3802">  │ ├── normalize-selector@0.2.0 </tspan>
<tspan x="10" y="3818">  │ ├─┬ postcss@5.2.17 </tspan>
<tspan x="10" y="3834">  │ │ ├── js-base64@2.1.9 </tspan>
<tspan x="10" y="3850">  │ │ ├── source-map@0.5.6 </tspan>
<tspan x="10" y="3866">  │ │ └─┬ supports-color@3.2.3 </tspan>
<tspan x="10" y="3882">  │ │   └── has-flag@1.0.0 </tspan>
<tspan x="10" y="3898">  │ ├── postcss-less@0.14.0 </tspan>
<tspan x="10" y="3914">  │ ├── postcss-media-query-parser@0.2.3 </tspan>
<tspan x="10" y="3930">  │ ├── postcss-reporter@3.0.0 </tspan>
<tspan x="10" y="3946">  │ ├── postcss-resolve-nested-selector@0.1.1 </tspan>
<tspan x="10" y="3962">  │ ├── postcss-scss@0.4.1 </tspan>
<tspan x="10" y="3978">  │ ├─┬ postcss-selector-parser@2.2.3 </tspan>
<tspan x="10" y="3994">  │ │ ├── flatten@1.0.2 </tspan>
<tspan x="10" y="4010">  │ │ ├── indexes-of@1.0.1 </tspan>
<tspan x="10" y="4026">  │ │ └── uniq@1.0.1 </tspan>
<tspan x="10" y="4042">  │ ├── postcss-value-parser@3.3.0 </tspan>
<tspan x="10" y="4058">  │ ├── resolve-from@2.0.0 </tspan>
<tspan x="10" y="4074">  │ ├── specificity@0.3.0 </tspan>
<tspan x="10" y="4090">  │ ├─┬ string-width@2.0.0 </tspan>
<tspan x="10" y="4106">  │ │ └── is-fullwidth-code-point@2.0.0 </tspan>
<tspan x="10" y="4122">  │ ├── style-search@0.1.0 </tspan>
<tspan x="10" y="4138">  │ ├─┬ stylehacks@2.3.2 </tspan>
<tspan x="10" y="4154">  │ │ ├── postcss-reporter@1.4.1 </tspan>
<tspan x="10" y="4170">  │ │ ├─┬ read-file-stdin@0.2.1 </tspan>
<tspan x="10" y="4186">  │ │ │ └── gather-stream@1.0.0 </tspan>
<tspan x="10" y="4202">  │ │ └── write-file-stdout@0.0.2 </tspan>
<tspan x="10" y="4218">  │ ├── sugarss@0.2.0 </tspan>
<tspan x="10" y="4234">  │ ├── svg-tags@1.0.0 </tspan>
<tspan x="10" y="4250">  │ └─┬ table@4.0.1 </tspan>
<tspan x="10" y="4266">  │   ├─┬ ajv@4.11.7 </tspan>
<tspan x="10" y="4282">  │   │ ├── co@4.6.0 </tspan>
<tspan x="10" y="4298">  │   │ └─┬ json-stable-stringify@1.0.1 </tspan>
<tspan x="10" y="4314">  │   │   └── jsonify@0.0.0 </tspan>
<tspan x="10" y="4330">  │   ├── ajv-keywords@1.5.1 </tspan>
<tspan x="10" y="4346">  │   └── slice-ansi@0.0.4 </tspan>
<tspan x="10" y="4362">  └─┬ through2@2.0.3 </tspan>
<tspan x="10" y="4378">    ├─┬ readable-stream@2.2.9 </tspan>
<tspan x="10" y="4394">    │ ├── buffer-shims@1.0.0 </tspan>
<tspan x="10" y="4410">    │ ├── core-util-is@1.0.2 </tspan>
<tspan x="10" y="4426">    │ ├── inherits@2.0.3 </tspan>
<tspan x="10" y="4442">    │ ├── isarray@1.0.0 </tspan>
<tspan x="10" y="4458">    │ ├── process-nextick-args@1.0.7 </tspan>
<tspan x="10" y="4474">    │ ├── string_decoder@1.0.0 </tspan>
<tspan x="10" y="4490">    │ └── util-deprecate@1.0.2 </tspan>
<tspan x="10" y="4506">    └── xtend@4.0.1</tspan>
</text>
</svg>
